<?xml version="1.0" encoding="UTF-8" standalone="no"?>
<!-- Created with Inkscape (http://www.inkscape.org/) -->

<svg
   xmlns:dc="http://purl.org/dc/elements/1.1/"
   xmlns:cc="http://creativecommons.org/ns#"
   xmlns:rdf="http://www.w3.org/1999/02/22-rdf-syntax-ns#"
   xmlns:svg="http://www.w3.org/2000/svg"
   xmlns="http://www.w3.org/2000/svg"
   xmlns:sodipodi="http://sodipodi.sourceforge.net/DTD/sodipodi-0.dtd"
   xmlns:inkscape="http://www.inkscape.org/namespaces/inkscape"
   width="175"
   height="175"
   viewBox="0 0 46.302082 46.302085"
   version="1.1"
   id="svg8"
   inkscape:version="0.92.3 (2405546, 2018-03-11)"
   sodipodi:docname="default-contact.svg">
  <defs
     id="defs2" />
  <sodipodi:namedview
     id="base"
     pagecolor="#ffffff"
     bordercolor="#666666"
     borderopacity="1.0"
     inkscape:pageopacity="0.0"
     inkscape:pageshadow="2"
     inkscape:zoom="1.979899"
     inkscape:cx="234.14573"
     inkscape:cy="106.71007"
     inkscape:document-units="mm"
     inkscape:current-layer="layer1"
     showgrid="false"
     inkscape:window-width="1920"
     inkscape:window-height="1040"
     inkscape:window-x="0"
     inkscape:window-y="0"
     inkscape:window-maximized="1"
     units="px" />
  <metadata
     id="metadata5">
    <rdf:RDF>
      <cc:Work
         rdf:about="">
        <dc:format>image/svg+xml</dc:format>
        <dc:type
           rdf:resource="http://purl.org/dc/dcmitype/StillImage" />
        <dc:title></dc:title>
      </cc:Work>
    </rdf:RDF>
  </metadata>
  <g
     inkscape:label="Camada 1"
     inkscape:groupmode="layer"
     id="layer1"
     transform="translate(0,-250.6979)">
    <path
       style="fill:#000000;stroke-width:0.26458332"
       d=""
       id="path826"
       inkscape:connector-curvature="0" />
    <g
       id="g889"
       transform="translate(-40.459104,68.326222)">
      <circle
         r="23.151041"
         cy="205.52272"
         cx="63.610146"
         id="path830"
         style="fill:#f2f2f2;fill-opacity:1;stroke-width:0.06740694" />
      <path
         inkscape:connector-curvature="0"
         id="path828"
         d="m 61.581067,228.59978 c -2.689442,-0.20165 -5.507257,-0.9726 -8.034958,-2.19837 -2.473646,-1.19956 -4.572717,-2.71188 -6.50201,-4.68449 -2.499435,-2.55556 -4.29417,-5.48436 -5.406771,-8.82324 -0.825955,-2.47866 -1.178224,-4.68238 -1.178224,-7.37071 0,-2.68833 0.352269,-4.89205 1.178224,-7.37071 0.915243,-2.74661 2.290664,-5.20646 4.200585,-7.51245 0.579173,-0.69929 2.189606,-2.30972 2.888886,-2.88889 3.360377,-2.7832 7.273866,-4.53821 11.521807,-5.16698 1.891071,-0.27991 4.952302,-0.27012 6.857786,0.0219 4.202084,0.64404 8.053417,2.38425 11.386733,5.14504 0.69928,0.57917 2.309714,2.1896 2.888887,2.88889 1.910588,2.3068 3.278762,4.75409 4.19989,7.51245 0.822704,2.46361 1.178259,4.6805 1.179283,7.35279 0.0011,2.70446 -0.362876,4.96302 -1.201928,7.4595 -1.441995,4.29049 -4.129829,8.05282 -7.798478,10.91604 -0.655492,0.51158 -1.960575,1.38314 -2.669518,1.78276 -2.51586,1.41809 -5.18934,2.34824 -7.977937,2.77565 -1.450409,0.2223 -3.800716,0.29061 -5.532257,0.16078 z m -13.403239,-9.8059 c 2.067529,-0.83734 6.123958,-2.26446 8.711392,-3.06482 0.464297,-0.14361 0.643188,-0.22069 0.691455,-0.29792 0.151127,-0.24181 0.123723,-1.93697 -0.04458,-2.75733 -0.04183,-0.2039 -0.231817,-0.76408 -0.422189,-1.24482 -0.384693,-0.97147 -0.58381,-1.62993 -0.775068,-2.5631 -0.116971,-0.5707 -0.145852,-0.64917 -0.326131,-0.88602 -0.674,-0.8855 -1.308654,-2.88202 -1.475333,-4.64115 -0.05758,-0.60768 -0.0054,-1.0653 0.197914,-1.73735 l 0.150121,-0.4961 -0.05674,-0.99221 c -0.06172,-1.07936 -0.140305,-1.82392 -0.296571,-2.80996 -0.297446,-1.8769 0.167141,-3.84472 1.316245,-5.57512 0.432719,-0.65163 1.280634,-1.52358 1.917381,-1.97175 1.080739,-0.76067 2.416717,-1.27133 3.954309,-1.51147 0.77075,-0.12037 2.992144,-0.12038 3.793454,-1e-5 1.50092,0.22546 2.769494,0.69727 3.909986,1.45418 0.625612,0.41521 1.575715,1.37387 2.001395,2.01943 1.132573,1.71758 1.603616,3.72566 1.3105,5.58671 -0.163417,1.03756 -0.24003,1.75847 -0.298415,2.80799 l -0.0552,0.99221 0.161734,0.51973 c 0.159663,0.51307 0.161695,0.53061 0.158689,1.37019 -0.0027,0.76831 -0.01773,0.92086 -0.155038,1.57907 -0.327522,1.57005 -0.665429,2.45862 -1.2861,3.38199 -0.202885,0.30183 -0.23291,0.38442 -0.343527,0.94496 -0.212545,1.07705 -0.510601,1.98685 -1.037087,3.16562 -0.264686,0.59263 -0.479912,1.26401 -0.553863,1.72778 -0.07848,0.49217 -0.04752,1.52834 0.04854,1.62438 0.03946,0.0394 0.560372,0.22172 1.157581,0.40508 2.536137,0.77863 7.121832,2.37333 9.084702,3.15924 l 0.250171,0.10017 0.121624,-0.13008 c 0.219305,-0.23454 1.037005,-1.34729 1.397614,-1.90189 2.408264,-3.70379 3.587406,-8.0406 3.387555,-12.45919 -0.136204,-3.01138 -0.84329,-5.76383 -2.17026,-8.44811 -2.476084,-5.00876 -6.867326,-8.8701 -12.140588,-10.67553 -3.008099,-1.0299 -6.314866,-1.36743 -9.499443,-0.96964 -9.012017,1.12571 -16.370144,7.9769 -18.139429,16.88972 -0.477909,2.40748 -0.527923,5.04726 -0.141766,7.48238 0.558929,3.52461 2.021502,6.86399 4.260553,9.72775 0.208255,0.26636 0.410465,0.48429 0.449354,0.48429 0.03889,0 0.392162,-0.13018 0.78505,-0.2893 z"
         style="fill:#cccccc;stroke-width:0.04724814" />
      <text
         id="text864"
         y="213.07736"
         x="58.187706"
         style="font-style:normal;font-weight:normal;font-size:20.35776138px;line-height:1.25;font-family:sans-serif;letter-spacing:0px;word-spacing:0px;fill:#f2f2f2;fill-opacity:1;stroke:none;stroke-width:0.50894403"
         xml:space="preserve"><tspan
           style="font-style:normal;font-variant:normal;font-weight:normal;font-stretch:normal;font-family:'DejaVu Sans';-inkscape-font-specification:'DejaVu Sans';fill:#f2f2f2;stroke-width:0.50894403"
           y="213.07736"
           x="58.187706"
           id="tspan862"
           sodipodi:role="line">?</tspan></text>
    </g>
  </g>
</svg>
