<?xml version="1.0" encoding="UTF-8" standalone="no"?>
<!-- Creator: CorelDRAW 2017 -->

<svg
   xmlns:dc="http://purl.org/dc/elements/1.1/"
   xmlns:cc="http://creativecommons.org/ns#"
   xmlns:rdf="http://www.w3.org/1999/02/22-rdf-syntax-ns#"
   xmlns:svg="http://www.w3.org/2000/svg"
   xmlns="http://www.w3.org/2000/svg"
   xmlns:sodipodi="http://sodipodi.sourceforge.net/DTD/sodipodi-0.dtd"
   xmlns:inkscape="http://www.inkscape.org/namespaces/inkscape"
   xml:space="preserve"
   width="1200"
   height="1200"
   version="1.1"
   style="clip-rule:evenodd;fill-rule:evenodd;image-rendering:optimizeQuality;shape-rendering:geometricPrecision;text-rendering:geometricPrecision"
   viewBox="0 0 31750.001 31749.999"
   id="svg30"
   sodipodi:docname="icon.svg"
   inkscape:version="0.92.3 (2405546, 2018-03-11)"
   inkscape:export-filename="/home/erick/git/net.grupopw.cooperativa.motorista/resources/icon.png"
   inkscape:export-xdpi="96"
   inkscape:export-ydpi="96"><metadata
   id="metadata34"><rdf:RDF><cc:Work
       rdf:about=""><dc:format>image/svg+xml</dc:format><dc:type
         rdf:resource="http://purl.org/dc/dcmitype/StillImage" /><dc:title /></cc:Work></rdf:RDF></metadata><sodipodi:namedview
   pagecolor="#ffffff"
   bordercolor="#666666"
   borderopacity="1"
   objecttolerance="10"
   gridtolerance="10"
   guidetolerance="10"
   inkscape:pageopacity="0"
   inkscape:pageshadow="2"
   inkscape:window-width="1920"
   inkscape:window-height="1040"
   id="namedview32"
   showgrid="false"
   inkscape:zoom="0.42050406"
   inkscape:cx="373.13217"
   inkscape:cy="486.13135"
   inkscape:window-x="0"
   inkscape:window-y="0"
   inkscape:window-maximized="1"
   inkscape:current-layer="g988"
   units="px" />
 <defs
   id="defs4">
  <style
   type="text/css"
   id="style2">
   <![CDATA[
    .fil0 {fill:#007FE0}
    .fil1 {fill:#010102}
    .fil2 {fill:#85EAFA}
    .fil3 {fill:#F8F8F8}
   ]]>
  </style>
 
  
  
  
  
  
  
  
  
  
  
  
  
 
</defs>
 
<g
   id="g988"
   transform="matrix(3.9732667,0,0,3.9732667,-31250,-45901.216)"><circle
   r="3995.4529"
   cy="15547.966"
   cx="11860.518"
   id="path871"
   style="fill:#32df4f;fill-opacity:1;stroke-width:26.45833206" /><path
   inkscape:connector-curvature="0"
   id="path865"
   d="m 13548.34,16654.704 c -151.844,-34.206 -281.673,-121.604 -404.91,-272.573 l -42.766,-52.391 -1188.105,-2.803 -1188.104,-2.803 -125.739,129.595 c -159.147,164.029 -185.609,176.501 -387.695,182.727 -156.091,4.809 -240.6081,-10.03 -338.4661,-59.429 -91.81,-46.346 -160.159,-105.567 -215.769,-186.955 l -50.164,-73.418 -174.5593,-5.368 c -195.437,-6.009 -238.4702,-15.738 -330.7658,-74.778 -54.6779,-34.978 -87.1116,-46.037 -241.5875,-82.38 -61.5594,-14.482 -115.2014,-73.048 -129.9426,-141.87 -15.1064,-70.527 -15.2976,-245.931 -0.3279,-300.733 14.2202,-52.059 52.5694,-103.878 99.2456,-134.104 33.9453,-21.982 35.6335,-26.034 35.8128,-85.939 0.364,-121.46 34.9973,-184.503 126.9599,-231.104 111.9391,-56.724 559.8381,-191.356 852.8258,-256.348 330.4421,-73.3 365.5391,-86.506 616.5051,-231.984 313.61,-181.792 525.607,-254.727 913.318,-314.215 179.381,-27.523 536.37,-37.588 698.583,-19.696 196.576,21.683 210.133,28.077 580.131,273.621 183.003,121.448 342.659,224.51 354.79,229.027 35.446,13.199 98.049,20.173 430.708,47.983 576.004,48.153 880.963,107.821 1123.284,219.78 135.658,62.678 258.748,163.095 301.677,246.107 13.051,25.24 36.148,159.115 36.673,212.573 0.04,4.451 18.99,28.608 42.103,53.683 52.504,56.959 68.198,127.36 57.474,257.81 -8.453,102.825 -22.149,141.111 -64.152,179.324 -46.278,42.103 -89.438,51.198 -242.952,51.198 h -141.609 l -89.968,45.477 c -49.482,25.013 -119.725,56.344 -156.096,69.626 -58.542,21.377 -70.784,31.003 -106.71,83.908 -48.98,72.126 -133.857,150.379 -198.666,183.162 -131.501,66.52 -319.558,92.909 -451.036,63.29 z"
   style="clip-rule:evenodd;fill:#ffffff;fill-opacity:1;fill-rule:evenodd;stroke-width:10.47823429;image-rendering:optimizeQuality;shape-rendering:geometricPrecision;text-rendering:geometricPrecision" /><text
   id="text869"
   y="15868.658"
   x="10676.328"
   style="font-style:normal;font-weight:normal;font-size:1231.07580566px;line-height:1.25;font-family:sans-serif;letter-spacing:0px;word-spacing:0px;clip-rule:evenodd;fill:#32df4f;fill-opacity:1;fill-rule:evenodd;stroke:none;stroke-width:30.77689552;image-rendering:optimizeQuality;shape-rendering:geometricPrecision;text-rendering:geometricPrecision;"
   xml:space="preserve"><tspan
     style="font-style:normal;font-variant:normal;font-weight:normal;font-stretch:normal;font-family:'DejaVu Sans';-inkscape-font-specification:'DejaVu Sans';fill:#32df4f;fill-opacity:1;stroke-width:30.77689552;"
     y="15868.658"
     x="10676.328"
     id="tspan867"
     sodipodi:role="line">Zap</tspan></text>

<text
   id="text869-9"
   y="17784.271"
   x="9858.8301"
   style="font-style:normal;font-weight:normal;font-size:851.39263916px;line-height:1.25;font-family:sans-serif;letter-spacing:0px;word-spacing:0px;clip-rule:evenodd;fill:#ffffff;fill-opacity:1;fill-rule:evenodd;stroke:none;stroke-width:21.28481674;image-rendering:optimizeQuality;shape-rendering:geometricPrecision;text-rendering:geometricPrecision"
   xml:space="preserve"><tspan
     style="font-style:normal;font-variant:normal;font-weight:normal;font-stretch:normal;font-family:'DejaVu Sans';-inkscape-font-specification:'DejaVu Sans';fill:#ffffff;fill-opacity:1;stroke-width:21.28481674"
     y="17784.271"
     x="9858.8301"
     id="tspan867-3"
     sodipodi:role="line">Motorista</tspan></text>

<rect
   rx="1224.722"
   y="11717.679"
   x="11119.987"
   height="1481.0597"
   width="1481.0597"
   id="rect959"
   style="fill:#ffffff;fill-opacity:0.47959188;stroke-width:45.16719818" /><text
   id="text963"
   y="12699.238"
   x="11565.678"
   style="font-style:normal;font-weight:normal;font-size:918.37774658px;line-height:1.25;font-family:sans-serif;letter-spacing:0px;word-spacing:0px;fill:#32df4f;fill-opacity:1;stroke:none;stroke-width:22.95944405;"
   xml:space="preserve"><tspan
     style="fill:#32df4f;fill-opacity:1;stroke-width:22.95944405;"
     y="12699.238"
     x="11565.678"
     id="tspan961"
     sodipodi:role="line">β</tspan></text>
</g></svg>