<?xml version="1.0" encoding="UTF-8" standalone="no"?>
<svg
   xmlns:dc="http://purl.org/dc/elements/1.1/"
   xmlns:cc="http://creativecommons.org/ns#"
   xmlns:rdf="http://www.w3.org/1999/02/22-rdf-syntax-ns#"
   xmlns:svg="http://www.w3.org/2000/svg"
   xmlns="http://www.w3.org/2000/svg"
   xmlns:sodipodi="http://sodipodi.sourceforge.net/DTD/sodipodi-0.dtd"
   xmlns:inkscape="http://www.inkscape.org/namespaces/inkscape"
   aria-hidden="true"
   data-prefix="fas"
   data-icon="map-marker"
   class="svg-inline--fa fa-map-marker fa-w-12"
   role="img"
   viewBox="0 0 27.341 35"
   version="1.1"
   id="svg4"
   sodipodi:docname="pin-target.svg"
   width="27.341"
   height="35"
   inkscape:version="0.92.3 (2405546, 2018-03-11)">
  <metadata
     id="metadata10">
    <rdf:RDF>
      <cc:Work
         rdf:about="">
        <dc:format>image/svg+xml</dc:format>
        <dc:type
           rdf:resource="http://purl.org/dc/dcmitype/StillImage" />
        <dc:title></dc:title>
      </cc:Work>
    </rdf:RDF>
  </metadata>
  <defs
     id="defs8">
    <filter
       inkscape:collect="always"
       style="color-interpolation-filters:sRGB"
       id="filter1011"
       x="-0.1684026"
       width="1.3368052"
       y="-0.97939402"
       height="2.9587879">
      <feGaussianBlur
         inkscape:collect="always"
         stdDeviation="1.0513269"
         id="feGaussianBlur1013" />
    </filter>
    <filter
       inkscape:collect="always"
       style="color-interpolation-filters:sRGB"
       id="filter961"
       x="-0.12600002"
       width="1.252"
       y="-0.09449999"
       height="1.189">
      <feGaussianBlur
         inkscape:collect="always"
         stdDeviation="1.0500002"
         id="feGaussianBlur963" />
    </filter>
  </defs>
  <sodipodi:namedview
     pagecolor="#ffffff"
     bordercolor="#666666"
     borderopacity="1"
     objecttolerance="10"
     gridtolerance="10"
     guidetolerance="10"
     inkscape:pageopacity="0"
     inkscape:pageshadow="2"
     inkscape:window-width="1920"
     inkscape:window-height="1040"
     id="namedview6"
     showgrid="false"
     inkscape:zoom="20.85965"
     inkscape:cx="14.875078"
     inkscape:cy="16.578289"
     inkscape:window-x="0"
     inkscape:window-y="0"
     inkscape:window-maximized="1"
     inkscape:current-layer="svg4" />
  <ellipse
     style="fill:#000000;fill-opacity:0.70068024;filter:url(#filter1011)"
     id="path821"
     cx="13.311959"
     cy="32.016949"
     rx="7.4915257"
     ry="1.2881356"
     transform="matrix(1.0211961,0,0,0.86011398,-0.28216131,4.1836061)" />
  <g
     id="g885">
    <path
       transform="matrix(1.1038685,0,0,1.1038685,2.7817489,3.2054731)"
       inkscape:export-ydpi="96"
       inkscape:export-xdpi="96"
       style="fill:#000000;fill-opacity:0.8093525;stroke-width:0.05208333;filter:url(#filter961)"
       inkscape:connector-curvature="0"
       id="path2-6"
       d="M 8.972292,25.744797 C 1.404688,14.774017 0,13.648077 0,9.6161469 0,4.0932871 4.477136,-0.38385295 10,-0.38385295 c 5.522865,0 10,4.47714005 10,9.99999985 0,4.0319301 -1.404688,5.1578701 -8.972292,16.1286501 -0.496614,0.71739 -1.558854,0.71734 -2.055416,0 z" />
    <g
       id="g878">
      <path
         d="M 12.193811,30.641664 C 3.9602433,18.705435 2.4319406,17.48041 2.4319406,13.093663 c 0,-6.0088826 4.8711318,-10.8800194 10.8800194,-10.8800194 6.008887,0 10.880019,4.8711368 10.880019,10.8800194 0,4.386747 -1.528304,5.611772 -9.761871,17.548001 -0.540317,0.780522 -1.696036,0.780468 -2.236297,0 z"
         id="path2"
         inkscape:connector-curvature="0"
         style="fill:#ff6600;fill-opacity:1;stroke-width:0.05666676"
         inkscape:export-xdpi="96"
         inkscape:export-ydpi="96" />
      <path
         d="M 12.518432,26.15858 C 6.675222,17.370483 5.5906146,16.468553 5.5906146,13.238792 c 0,-4.4240633 3.4569506,-8.0104572 7.7213454,-8.0104572 4.264395,0 7.721345,3.5863939 7.721345,8.0104572 0,3.229761 -1.084608,4.131691 -6.927817,12.919788 -0.383452,0.574662 -1.203644,0.574621 -1.587056,0 z"
         id="path2-3"
         inkscape:connector-curvature="0"
         style="fill:#ffffff;fill-opacity:1;stroke-width:0.04096131"
         inkscape:export-xdpi="96"
         inkscape:export-ydpi="96" />
      <path
         inkscape:connector-curvature="0"
         style="fill:#ff6600;fill-opacity:1;stroke-width:0.02559319"
         d="m 18.460382,10.346251 c 0.542988,-0.252193 1.164109,0.14391 1.164109,0.742612 v 6.221705 c 0,0.269393 -0.132087,0.522278 -0.35429,0.674585 -0.917179,0.628671 -1.902466,1.045686 -3.135289,1.045686 -1.724292,0 -2.85697,-0.890206 -4.228435,-0.890206 -1.301486,0 -2.204186,0.257417 -2.9287517,0.566171 v 2.416024 c 0,0.339234 -0.2750024,0.614237 -0.6142367,0.614237 H 7.953996 c -0.33924,0 -0.6142368,-0.275003 -0.6142368,-0.614237 v -9.880383 c -0.3711773,-0.259 -0.6142364,-0.688943 -0.6142364,-1.175876 0,-0.8114082 0.6742508,-1.4653134 1.4930547,-1.4319905 0.728585,0.029638 1.3251924,0.6134173 1.3705419,1.3411831 0.013309,0.2135034 -0.020734,0.4174284 -0.091772,0.6030294 0.5306986,-0.195274 1.1028086,-0.307478 1.7414876,-0.307478 1.724293,0 2.85697,0.890206 4.228429,0.890206 1.036421,0 2.114304,-0.407083 2.993122,-0.815268 z m -9.4826567,1.732711 v 1.804064 C 9.7199252,13.609949 10.287582,13.4267 10.86138,13.347874 v -1.831707 c -0.601437,0.05554 -1.034987,0.250555 -1.8836547,0.562795 z m 5.6509727,0.235202 C 13.952606,12.194592 13.351957,11.956393 12.74504,11.768003 V 13.4935 c 0.618718,0.171623 1.217365,0.420854 1.883658,0.570983 z m -3.767318,1.03371 v 1.792544 c 0.839358,-0.07621 1.379729,-0.01627 1.88366,0.09725 v -1.744171 c -0.646152,-0.180048 -1.192155,-0.241168 -1.88366,-0.145626 z m 1.88366,3.640114 c 0.674075,0.119061 1.272804,0.356441 1.883658,0.546161 V 15.808912 C 14.007374,15.636259 13.411999,15.387905 12.74504,15.23767 Z M 8.9777253,17.388782 C 9.5822344,17.174053 10.200821,17.034569 10.86138,16.964959 v -1.824541 c -0.668236,0.06014 -1.2120926,0.205772 -1.8836547,0.4443 z m 9.4182927,-5.671451 c -0.545138,0.226497 -1.19239,0.451461 -1.88366,0.57508 v 1.840405 c 0.698952,-0.111588 1.280427,-0.360866 1.88366,-0.61142 z m 0,5.373546 v -1.804064 c -0.567915,0.363424 -1.248435,0.578659 -1.88366,0.665932 v 1.831965 c 0.641622,-0.06092 1.241017,-0.282553 1.88366,-0.693833 z m -3.76732,-3.026394 v 1.744429 c 0.656826,0.182582 1.193055,0.239094 1.88366,0.143833 v -1.819929 c -0.665397,0.107156 -1.278199,0.06849 -1.88366,-0.06834 z"
         id="path2-36" />
    </g>
  </g>
</svg>
