<?xml version="1.0" encoding="UTF-8" standalone="no"?>
<svg
   xmlns:dc="http://purl.org/dc/elements/1.1/"
   xmlns:cc="http://creativecommons.org/ns#"
   xmlns:rdf="http://www.w3.org/1999/02/22-rdf-syntax-ns#"
   xmlns:svg="http://www.w3.org/2000/svg"
   xmlns="http://www.w3.org/2000/svg"
   xmlns:sodipodi="http://sodipodi.sourceforge.net/DTD/sodipodi-0.dtd"
   xmlns:inkscape="http://www.inkscape.org/namespaces/inkscape"
   aria-hidden="true"
   data-prefix="fas"
   data-icon="map-marker"
   class="svg-inline--fa fa-map-marker fa-w-12"
   role="img"
   viewBox="0 0 27.341 35"
   version="1.1"
   id="svg4"
   sodipodi:docname="pin-car.svg"
   width="27.341"
   height="35"
   inkscape:version="0.92.3 (2405546, 2018-03-11)">
  <metadata
     id="metadata10">
    <rdf:RDF>
      <cc:Work
         rdf:about="">
        <dc:format>image/svg+xml</dc:format>
        <dc:type
           rdf:resource="http://purl.org/dc/dcmitype/StillImage" />
        <dc:title />
      </cc:Work>
    </rdf:RDF>
  </metadata>
  <defs
     id="defs8">
    <filter
       inkscape:collect="always"
       style="color-interpolation-filters:sRGB"
       id="filter1011"
       x="-0.1684026"
       width="1.3368052"
       y="-0.97939402"
       height="2.9587879">
      <feGaussianBlur
         inkscape:collect="always"
         stdDeviation="1.0513269"
         id="feGaussianBlur1013" />
    </filter>
    <filter
       inkscape:collect="always"
       style="color-interpolation-filters:sRGB"
       id="filter961"
       x="-0.12600002"
       width="1.252"
       y="-0.09449999"
       height="1.189">
      <feGaussianBlur
         inkscape:collect="always"
         stdDeviation="1.0500002"
         id="feGaussianBlur963" />
    </filter>
  </defs>
  <sodipodi:namedview
     pagecolor="#ffffff"
     bordercolor="#666666"
     borderopacity="1"
     objecttolerance="10"
     gridtolerance="10"
     guidetolerance="10"
     inkscape:pageopacity="0"
     inkscape:pageshadow="2"
     inkscape:window-width="1920"
     inkscape:window-height="1040"
     id="namedview6"
     showgrid="false"
     inkscape:zoom="10.429825"
     inkscape:cx="-21.691569"
     inkscape:cy="11.708401"
     inkscape:window-x="0"
     inkscape:window-y="0"
     inkscape:window-maximized="1"
     inkscape:current-layer="svg4" />
  <ellipse
     style="fill:#000000;fill-opacity:0.70068024;filter:url(#filter1011)"
     id="path821"
     cx="13.311959"
     cy="32.016949"
     rx="7.4915257"
     ry="1.2881356"
     transform="matrix(1.0211961,0,0,0.86011398,-0.28216131,4.1836061)" />
  <path
     d="M 8.972292,25.744797 C 1.404688,14.774017 0,13.648077 0,9.6161469 0,4.0932871 4.477136,-0.38385295 10,-0.38385295 c 5.522865,0 10,4.47714005 10,9.99999985 0,4.0319301 -1.404688,5.1578701 -8.972292,16.1286501 -0.496614,0.71739 -1.558854,0.71734 -2.055416,0 z"
     id="path2-6"
     inkscape:connector-curvature="0"
     style="fill:#000000;fill-opacity:0.8093525;stroke-width:0.05208333;filter:url(#filter961)"
     inkscape:export-xdpi="96"
     inkscape:export-ydpi="96"
     transform="matrix(1.1038685,0,0,1.1038685,2.7817489,3.2054731)" />
  <path
     d="M 12.193811,30.641664 C 3.9602433,18.705435 2.4319406,17.48041 2.4319406,13.093663 c 0,-6.0088826 4.8711318,-10.8800194 10.8800194,-10.8800194 6.008887,0 10.880019,4.8711368 10.880019,10.8800194 0,4.386747 -1.528304,5.611772 -9.761871,17.548001 -0.540317,0.780522 -1.696036,0.780468 -2.236297,0 z"
     id="path2"
     inkscape:connector-curvature="0"
     style="fill:#32df4f;fill-opacity:1;stroke-width:0.05666676"
     inkscape:export-xdpi="96"
     inkscape:export-ydpi="96" />
  <path
     d="M 12.518432,26.15858 C 6.675222,17.370483 5.5906146,16.468553 5.5906146,13.238792 c 0,-4.4240633 3.4569506,-8.0104572 7.7213454,-8.0104572 4.264395,0 7.721345,3.5863939 7.721345,8.0104572 0,3.229761 -1.084608,4.131691 -6.927817,12.919788 -0.383452,0.574662 -1.203644,0.574621 -1.587056,0 z"
     id="path2-3"
     inkscape:connector-curvature="0"
     style="fill:#ffffff;fill-opacity:1;stroke-width:0.04096131"
     inkscape:export-xdpi="96"
     inkscape:export-ydpi="96" />
  <path
     inkscape:connector-curvature="0"
     style="fill:#32df4f;fill-opacity:1;stroke:none;stroke-width:0.5;stroke-miterlimit:4;stroke-dasharray:none;stroke-opacity:1"
     d="M 8.5553556,11.647389 H 8.895113 l 2.309929,-2.8875115 a 1.3595601,1.3595601 0 0 1 1.061316,-0.51006 h 4.542341 c 0.555715,0 1.05537,0.338271 1.261772,0.854276 l 1.017364,2.5912855 c 0.585232,0.151618 1.019272,0.678455 1.019272,1.311039 v 2.378301 c 0,0.187717 -0.15204,0.339756 -0.339758,0.339756 h -1.019271 c 0,1.125873 -0.912671,2.03855 -2.038543,2.03855 -1.125873,0 -2.038544,-0.912677 -2.038544,-2.03855 h -2.718057 c 0,1.125873 -0.912677,2.03855 -2.0385495,2.03855 -1.1258664,0 -2.038543,-0.912677 -2.038543,-2.03855 H 6.8565699 c -0.187712,0 -0.3397574,-0.152039 -0.3397574,-0.339756 v -1.698787 c 0,-1.125867 0.9126766,-2.038543 2.0385431,-2.038543 z m 8.1541794,5.096359 c 0.562087,0 1.019272,-0.457185 1.019272,-1.019273 0,-0.562081 -0.457185,-1.019271 -1.019272,-1.019271 -0.562087,0 -1.019272,0.45719 -1.019272,1.019271 0,0.562088 0.457185,1.019273 1.019272,1.019273 z m -1.52891,-5.096359 h 2.443494 l -0.81542,-2.0385425 h -1.628074 z m -1.019272,0 V 9.6088465 h -1.894995 l -1.630836,2.0385425 z m -4.2469685,5.096359 c 0.5620875,0 1.0192775,-0.457185 1.0192775,-1.019273 0,-0.562081 -0.45719,-1.019271 -1.0192775,-1.019271 -0.5620816,0 -1.0192715,0.45719 -1.0192715,1.019271 0,0.562088 0.4571899,1.019273 1.0192715,1.019273 z"
     id="path2-7" />
</svg>
