<?xml version="1.0" encoding="UTF-8" standalone="no"?>
<svg
   xmlns:dc="http://purl.org/dc/elements/1.1/"
   xmlns:cc="http://creativecommons.org/ns#"
   xmlns:rdf="http://www.w3.org/1999/02/22-rdf-syntax-ns#"
   xmlns:svg="http://www.w3.org/2000/svg"
   xmlns="http://www.w3.org/2000/svg"
   xmlns:sodipodi="http://sodipodi.sourceforge.net/DTD/sodipodi-0.dtd"
   xmlns:inkscape="http://www.inkscape.org/namespaces/inkscape"
   aria-hidden="true"
   data-prefix="fas"
   data-icon="map-marker"
   class="svg-inline--fa fa-map-marker fa-w-12"
   role="img"
   viewBox="0 0 27.341 35"
   version="1.1"
   id="svg4"
   sodipodi:docname="pin.svg"
   width="27.341"
   height="35"
   inkscape:version="0.92.3 (2405546, 2018-03-11)">
  <metadata
     id="metadata10">
    <rdf:RDF>
      <cc:Work
         rdf:about="">
        <dc:format>image/svg+xml</dc:format>
        <dc:type
           rdf:resource="http://purl.org/dc/dcmitype/StillImage" />
        <dc:title />
      </cc:Work>
    </rdf:RDF>
  </metadata>
  <defs
     id="defs8">
    <filter
       inkscape:collect="always"
       style="color-interpolation-filters:sRGB"
       id="filter961"
       x="-0.12600002"
       width="1.252"
       y="-0.09449999"
       height="1.189">
      <feGaussianBlur
         inkscape:collect="always"
         stdDeviation="1.0500002"
         id="feGaussianBlur963" />
    </filter>
    <filter
       inkscape:collect="always"
       style="color-interpolation-filters:sRGB"
       id="filter1011"
       x="-0.16840259"
       width="1.3368052"
       y="-0.979394"
       height="2.958788">
      <feGaussianBlur
         inkscape:collect="always"
         stdDeviation="1.0513269"
         id="feGaussianBlur1013" />
    </filter>
  </defs>
  <sodipodi:namedview
     pagecolor="#ffffff"
     bordercolor="#666666"
     borderopacity="1"
     objecttolerance="10"
     gridtolerance="10"
     guidetolerance="10"
     inkscape:pageopacity="0"
     inkscape:pageshadow="2"
     inkscape:window-width="1920"
     inkscape:window-height="1040"
     id="namedview6"
     showgrid="false"
     inkscape:zoom="14.75"
     inkscape:cx="7.8390069"
     inkscape:cy="16.494063"
     inkscape:window-x="0"
     inkscape:window-y="0"
     inkscape:window-maximized="1"
     inkscape:current-layer="svg4" />
  <ellipse
     style="fill:#000000;fill-opacity:0.70068026;filter:url(#filter1011)"
     id="path821"
     cx="13.311959"
     cy="32.016949"
     rx="7.4915257"
     ry="1.2881356"
     transform="matrix(1.0211961,0,0,0.86011398,-0.28216118,4.1397404)" />
  <g
     id="g1009"
     transform="translate(-11.535499,-6.5847459)">
    <path
       transform="matrix(1.1038685,0,0,1.1038685,14.317248,9.790218)"
       inkscape:export-ydpi="96"
       inkscape:export-xdpi="96"
       style="fill:#000000;fill-opacity:0.8093525;stroke-width:0.05208333;filter:url(#filter961)"
       inkscape:connector-curvature="0"
       id="path2-6"
       d="M 8.972292,25.744797 C 1.404688,14.774017 0,13.648077 0,9.6161469 0,4.0932871 4.477136,-0.38385295 10,-0.38385295 c 5.522865,0 10,4.47714005 10,9.99999985 0,4.0319301 -1.404688,5.1578701 -8.972292,16.1286501 -0.496614,0.71739 -1.558854,0.71734 -2.055416,0 z" />
    <g
       transform="matrix(1.0880019,0,0,1.0880019,13.96744,8.7978989)"
       id="g899">
      <path
         d="M 8.9722917,26.1291 C 1.4046875,15.15832 0,14.03238 0,10.00045 c 0,-5.52286 4.4771354,-10 10,-10 5.522865,0 10,4.47714 10,10 0,4.03193 -1.404688,5.15787 -8.972292,16.12865 -0.496614,0.71739 -1.5588538,0.71734 -2.0554163,0 z"
         id="path2"
         inkscape:connector-curvature="0"
         style="fill:#02c39a;fill-opacity:1;stroke-width:0.05208333"
         inkscape:export-xdpi="96"
         inkscape:export-ydpi="96" />
      <path
         d="M 9.2706556,22.008625 C 3.900068,13.931344 2.9031879,13.102366 2.9031879,10.133841 c 0,-4.0662278 3.1773388,-7.36254 7.0968121,-7.36254 3.919474,0 7.096812,3.2963122 7.096812,7.36254 0,2.968525 -0.99688,3.797503 -6.367467,11.874784 -0.352437,0.528181 -1.1062887,0.528144 -1.4586894,0 z"
         id="path2-3"
         inkscape:connector-curvature="0"
         style="fill:#ffffff;fill-opacity:1;stroke-width:0.0376482"
         inkscape:export-xdpi="96"
         inkscape:export-ydpi="96" />
      <path
         style="fill:#02c39a;fill-opacity:1;stroke-width:0.47987169"
         d="M 5.8934153,7.2406878 A 0.84274192,0.82869618 0 0 0 5.0533894,8.0175904 h -0.00162 v 0.024278 a 0.84274192,0.82869618 0 0 0 -0.00162,0.027515 0.84274192,0.82869618 0 0 0 0.00162,0.030752 V 8.737844 c 0,1.991468 1.0610726,3.732539 2.6398505,4.70188 v 7.762552 L 10.41078,23.458531 14.8893,16.581324 V 14.73618 c 0,-1.276459 -2.557937,-1.919597 -3.839194,-1.919597 h -0.119773 c -2.2793905,0 -4.1985116,-1.919316 -4.1985116,-4.078739 V 8.1535484 A 0.84274192,0.82869618 0 0 0 6.7366785,8.069384 0.84274192,0.82869618 0 0 0 5.8934153,7.2406878 Z m 5.1566917,0.7769026 c -1.0601035,0 -1.9179785,0.8594938 -1.9179786,1.9195971 1e-7,1.0601025 0.8578751,1.9195975 1.9179786,1.9195975 1.060102,0 1.919597,-0.859495 1.919597,-1.9195975 0,-1.0601031 -0.859494,-1.919597 -1.919597,-1.9195971 z"
         id="path815"
         inkscape:connector-curvature="0" />
    </g>
  </g>
</svg>
