<?xml version="1.0" encoding="UTF-8" standalone="no"?>
<!-- Creator: CorelDRAW 2017 -->

<svg
   xmlns:dc="http://purl.org/dc/elements/1.1/"
   xmlns:cc="http://creativecommons.org/ns#"
   xmlns:rdf="http://www.w3.org/1999/02/22-rdf-syntax-ns#"
   xmlns:svg="http://www.w3.org/2000/svg"
   xmlns="http://www.w3.org/2000/svg"
   xmlns:xlink="http://www.w3.org/1999/xlink"
   xmlns:sodipodi="http://sodipodi.sourceforge.net/DTD/sodipodi-0.dtd"
   xmlns:inkscape="http://www.inkscape.org/namespaces/inkscape"
   xml:space="preserve"
   width="2300"
   height="2300"
   version="1.1"
   style="clip-rule:evenodd;fill-rule:evenodd;image-rendering:optimizeQuality;shape-rendering:geometricPrecision;text-rendering:geometricPrecision"
   viewBox="0 0 60854.169 60854.165"
   id="svg30"
   sodipodi:docname="splash.svg"
   inkscape:version="0.92.3 (2405546, 2018-03-11)"
   inkscape:export-filename="/home/erick/git/net.grupopw.cooperativa.motorista/resources/splash.png"
   inkscape:export-xdpi="96"
   inkscape:export-ydpi="96"><metadata
   id="metadata34"><rdf:RDF><cc:Work
       rdf:about=""><dc:format>image/svg+xml</dc:format><dc:type
         rdf:resource="http://purl.org/dc/dcmitype/StillImage" /><dc:title /></cc:Work></rdf:RDF></metadata><sodipodi:namedview
   pagecolor="#ffffff"
   bordercolor="#666666"
   borderopacity="1"
   objecttolerance="10"
   gridtolerance="10"
   guidetolerance="10"
   inkscape:pageopacity="0"
   inkscape:pageshadow="2"
   inkscape:window-width="1920"
   inkscape:window-height="1040"
   id="namedview32"
   showgrid="false"
   inkscape:zoom="0.29734127"
   inkscape:cx="742.34512"
   inkscape:cy="1430.0292"
   inkscape:window-x="0"
   inkscape:window-y="0"
   inkscape:window-maximized="1"
   inkscape:current-layer="svg30"
   units="px" />
 <defs
   id="defs4"><linearGradient
   inkscape:collect="always"
   id="linearGradient877"><stop
     style="stop-color:#05668d;stop-opacity:1;"
     offset="0"
     id="stop873" /><stop
     style="stop-color:#00a896;stop-opacity:1"
     offset="1"
     id="stop875" /></linearGradient>
  <style
   type="text/css"
   id="style2">
   <![CDATA[
    .fil0 {fill:#007FE0}
    .fil1 {fill:#010102}
    .fil2 {fill:#85EAFA}
    .fil3 {fill:#F8F8F8}
   ]]>
  </style>
 
  
  
  
  
  
  
  
  
  
  
  
  
 <linearGradient
   inkscape:collect="always"
   xlink:href="#linearGradient877"
   id="linearGradient1098"
   x1="13891.695"
   y1="2528.8984"
   x2="7760.4814"
   y2="8802.2041"
   gradientUnits="userSpaceOnUse"
   gradientTransform="matrix(3.9732667,0,0,3.9732667,-31941.432,-3072.7663)" />
</defs>
 
<rect
   style="fill:#050000;fill-opacity:1;stroke-width:71.47883606"
   id="rect1066"
   width="60854.168"
   height="60854.168"
   x="0"
   y="-0.00096875004" /><path
   style="clip-rule:evenodd;fill:#32df4f;fill-opacity:1;fill-rule:evenodd;stroke-width:12.16833782;image-rendering:optimizeQuality;shape-rendering:geometricPrecision;text-rendering:geometricPrecision"
   d="m 32387.145,31712.335 c -176.336,-39.723 -327.106,-141.218 -470.22,-316.538 l -49.664,-60.842 -1379.743,-3.255 -1379.741,-3.255 -146.02,150.498 c -184.817,190.487 -215.547,204.97 -450.229,212.201 -181.268,5.584 -279.418,-11.648 -393.06,-69.015 -106.618,-53.822 -185.992,-122.595 -250.572,-217.11 l -58.255,-85.261 -202.715,-6.234 c -226.96,-6.978 -276.934,-18.276 -384.117,-86.839 -63.497,-40.62 -101.163,-53.463 -280.555,-95.667 -71.489,-16.818 -133.783,-84.831 -150.902,-164.753 -17.543,-81.903 -17.765,-285.599 -0.381,-349.241 16.514,-60.456 61.049,-120.633 115.254,-155.734 39.42,-25.528 41.381,-30.233 41.589,-99.801 0.423,-141.051 40.642,-214.262 147.438,-268.38 129.995,-65.873 650.139,-222.221 990.384,-297.696 383.742,-85.123 424.499,-100.459 715.946,-269.402 364.194,-211.115 610.385,-295.814 1060.633,-364.898 208.314,-31.962 622.884,-43.65 811.262,-22.872 228.283,25.18 244.027,32.606 673.704,317.755 212.521,141.037 397.929,260.723 412.016,265.969 41.164,15.327 113.864,23.426 500.18,55.722 668.912,55.92 1023.059,125.212 1304.466,255.23 157.539,72.787 300.483,189.401 350.337,285.803 15.156,29.311 41.978,184.779 42.588,246.86 0.05,5.169 22.053,33.222 48.894,62.342 60.972,66.146 79.198,147.902 66.744,299.394 -9.816,119.41 -25.722,163.871 -74.499,208.248 -53.743,48.894 -103.864,59.456 -282.14,59.456 h -164.45 l -104.479,52.812 c -57.463,29.048 -139.037,65.432 -181.274,80.857 -67.985,24.825 -82.201,36.004 -123.922,97.442 -56.881,83.759 -155.448,174.635 -230.71,212.705 -152.712,77.25 -371.102,107.895 -523.787,73.499 z"
   id="path865"
   inkscape:connector-curvature="0" /><text
   xml:space="preserve"
   style="font-style:normal;font-weight:normal;font-size:1429.64416504px;line-height:1.25;font-family:sans-serif;letter-spacing:0px;word-spacing:0px;clip-rule:evenodd;fill:#050000;fill-opacity:1;fill-rule:evenodd;stroke:none;stroke-width:35.74110794;image-rendering:optimizeQuality;shape-rendering:geometricPrecision;text-rendering:geometricPrecision;"
   x="29051.887"
   y="30799.502"
   id="text869"><tspan
     sodipodi:role="line"
     id="tspan867"
     x="29051.887"
     y="30799.502"
     style="font-style:normal;font-variant:normal;font-weight:normal;font-stretch:normal;font-family:'DejaVu Sans';-inkscape-font-specification:'DejaVu Sans';fill:#050000;fill-opacity:1;stroke-width:35.74110794;">Zap</tspan></text>
</svg>